<?xml version="1.0" encoding="iso-8859-1"?>
<!-- Generator: Adobe Illustrator 19.0.0, SVG Export Plug-In . SVG Version: 6.00 Build 0)  -->
<svg version="1.1" id="Layer_1" xmlns="http://www.w3.org/2000/svg" xmlns:xlink="http://www.w3.org/1999/xlink" x="0px" y="0px"
	 viewBox="0 0 512 512" style="enable-background:new 0 0 512 512;" xml:space="preserve">
<polygon style="fill:#FFD699;" points="396.986,0 115.013,0 4.6,134.355 72.101,201.856 104.397,170.667 104.397,402.938 
	195.66,512 316.34,512 407.603,402.938 405.333,170.667 440.911,202.667 507.4,134.355 "/>
<g>
	<path style="fill:#FFC266;" d="M396.986,0H255.999v512h38.652l-0.311-22.458c-0.31-22.457,8.205-43.63,23.976-59.62
		c15.771-15.989,36.824-24.796,59.283-24.796h28.172l1.831-2.188l-2.27-232.272l35.578,32l66.489-68.311L396.986,0z"/>
	<path style="fill:#FFC266;" d="M193.684,429.922c-15.771-15.989-36.824-24.796-59.283-24.796h-28.172L195.66,512h21.689
		l0.31-22.458C217.969,467.085,209.454,445.912,193.684,429.922z"/>
</g>
<path style="fill:#FC0023;" d="M302.171,177.6c-8.143-7.252-20.143-8.644-31.318-3.633c-6.101,2.736-11.1,7.01-14.532,12.146
	c-3.263-5.171-8.026-9.478-13.843-12.229c-11.027-5.216-23.041-3.876-32.137,3.584c-9.27,7.604-13.847,18.984-12.889,32.046
	c1.847,25.163,22.839,52.119,56.154,72.108l2.572,1.543l2.572-1.543c32.566-19.54,53.394-45.954,55.714-70.658
	C315.715,197.625,311.35,185.777,302.171,177.6z"/>
<path style="fill:#C80018;" d="M256.177,283.165l2.572-1.543c32.566-19.54,53.394-45.954,55.714-70.658
	c1.252-13.337-3.113-25.186-12.293-33.363c-8.143-7.252-20.143-8.644-31.318-3.633c-6.101,2.736-11.1,7.01-14.532,12.146"/>
<path style="fill:#FFC266;" d="M255.999,71.383c38.599,0,70.001-31.402,70.001-70V0h-140v1.383
	C186.001,39.981,217.402,71.383,255.999,71.383z"/>
<path style="fill:#FF9900;" d="M256.177,0v71.379C294.693,71.282,326,39.922,326,1.383V0H256.177z"/>
<g>
</g>
<g>
</g>
<g>
</g>
<g>
</g>
<g>
</g>
<g>
</g>
<g>
</g>
<g>
</g>
<g>
</g>
<g>
</g>
<g>
</g>
<g>
</g>
<g>
</g>
<g>
</g>
<g>
</g>
</svg>
